<svg width="48" height="48" viewBox="0 0 48 48" fill="none" xmlns="http://www.w3.org/2000/svg">
<path d="M0 24C0 10.7452 10.7452 0 24 0C37.2548 0 48 10.7452 48 24C48 37.2548 37.2548 48 24 48C10.7452 48 0 37.2548 0 24Z" fill="black"/>
<path d="M0.5 24C0.5 11.0213 11.0213 0.5 24 0.5C36.9787 0.5 47.5 11.0213 47.5 24C47.5 36.9787 36.9787 47.5 24 47.5C11.0213 47.5 0.5 36.9787 0.5 24Z" stroke="black" stroke-opacity="0.2"/>
<path fill-rule="evenodd" clip-rule="evenodd" d="M16.3236 18.3431L10.6667 24L16.3236 29.6569L21.9806 24L16.3236 18.3431ZM23.8662 10.8005L18.2093 16.4574L23.8662 22.1144L29.5231 16.4574L23.8662 10.8005ZM18.2093 31.5426L23.8662 25.8856L29.5231 31.5426L23.8662 37.1995L18.2093 31.5426ZM31.4088 18.3431L25.7518 24L31.4088 29.6569L37.0657 24L31.4088 18.3431Z" fill="#00D991"/>
</svg>
