<svg width="78" height="20" viewBox="0 0 78 20" fill="none" xmlns="http://www.w3.org/2000/svg">
<path d="M40.4794 0H36.4083V19.9986H40.4794V0Z" fill="black" fill-opacity="0.9"/>
<path d="M0.791931 0.0221237H5.11353V8.99348L13.1931 0.0221237H18.4333L11.0218 8.24586L18.9134 20H13.7359L7.97373 11.5686L5.11353 14.7459V20H0.791931V0.0221237Z" fill="black" fill-opacity="0.9"/>
<path fill-rule="evenodd" clip-rule="evenodd" d="M34.8426 19.8117H32.7757C30.9176 19.8117 29.999 19.0017 30.0408 17.4027C29.498 18.2334 28.8299 18.8771 28.0575 19.3132C27.2641 19.7494 26.3246 19.9778 25.1973 19.9778C23.548 19.9778 22.2118 19.604 21.1888 18.8564C20.1867 18.088 19.6856 17.0289 19.6856 15.6582C19.6856 14.1007 20.2702 12.8962 21.4185 12.0656C22.5876 11.2141 24.2787 10.778 26.4917 10.778H29.4354V10.0719C29.4354 9.40737 29.1848 8.8882 28.6838 8.49362C28.1827 8.09905 27.5146 7.89138 26.6587 7.89138C25.9071 7.89138 25.3016 8.05751 24.8215 8.36902C24.3413 8.70129 24.049 9.1374 23.9655 9.67734H20.0197C20.1449 8.18212 20.8339 7.01916 22.0448 6.18848C23.2557 5.3578 24.8632 4.92169 26.8674 4.92169C28.9552 4.92169 30.5836 5.37857 31.711 6.29232C32.8592 7.20607 33.4438 8.53516 33.4438 10.2588V15.4298C33.4438 15.7828 33.5273 16.0321 33.6734 16.1774C33.8196 16.302 34.0701 16.3851 34.4042 16.3851H34.8426V19.8117ZM26.4499 13.4569C25.6148 13.4569 24.9467 13.6231 24.4666 13.9761C24.0073 14.3084 23.7776 14.7653 23.7776 15.3675C23.7776 15.8867 23.9655 16.2813 24.3622 16.5928C24.7588 16.9043 25.3016 17.0496 25.9697 17.0496C27.0345 17.0496 27.8696 16.7589 28.475 16.1567C29.0804 15.5544 29.4145 14.7445 29.4354 13.7269V13.4569H26.4499Z" fill="black" fill-opacity="0.9"/>
<path d="M45.8865 14.9314C45.9491 15.5752 46.2623 16.0944 46.8469 16.5097C47.4314 16.9043 48.1621 17.112 49.0599 17.112C49.9158 17.112 50.6048 16.9874 51.1058 16.7174C51.6069 16.4266 51.8574 16.0321 51.8574 15.5129C51.8574 15.1391 51.7321 14.8483 51.5025 14.6614C51.2728 14.4745 50.9388 14.3292 50.5213 14.2669C50.1037 14.163 49.4148 14.0592 48.4544 13.9554C47.1391 13.7892 46.0535 13.5608 45.1976 13.2908C44.3416 13.0208 43.6318 12.6055 43.1307 12.024C42.6088 11.4426 42.3582 10.6949 42.3582 9.73966C42.3582 8.78438 42.6088 7.9537 43.1307 7.22685C43.6735 6.47924 44.4251 5.91853 45.3854 5.50319C46.3458 5.10861 47.4523 4.90094 48.7049 4.90094C50.73 4.92171 52.3376 5.35782 53.5694 6.1885C54.822 7.01918 55.4901 8.18213 55.5945 9.67736H51.7321C51.6695 9.11665 51.3772 8.68054 50.8344 8.3275C50.3125 7.97446 49.6444 7.78756 48.8093 7.78756C48.0369 7.78756 47.4105 7.93293 46.9304 8.22367C46.4711 8.5144 46.2414 8.88821 46.2414 9.36585C46.2414 9.71889 46.3667 9.9681 46.6172 10.1342C46.8677 10.3004 47.2018 10.425 47.5984 10.508C47.9951 10.5911 48.6841 10.6742 49.6235 10.7572C51.6278 10.9857 53.1518 11.4218 54.1957 12.0448C55.2813 12.647 55.8032 13.7062 55.8032 15.2222C55.8032 16.1774 55.5109 17.0081 54.9473 17.735C54.3836 18.4618 53.6111 19.0225 52.5881 19.4171C51.586 19.7909 50.4169 19.9986 49.1016 19.9986C47.0556 19.9986 45.3646 19.5417 44.0911 18.6487C42.7967 17.735 42.1286 16.4889 42.0451 14.9314H45.8865Z" fill="black" fill-opacity="0.9"/>
<path d="M70.1254 6.72852C68.998 5.6694 67.5783 5.12945 65.8247 5.12945C64.0083 5.12945 62.5469 5.794 61.4404 7.12309V0H57.3693V19.9986H61.4404V12.4602C61.4404 11.1934 61.7118 10.2174 62.2964 9.5113C62.881 8.80522 63.6952 8.45218 64.739 8.45218C65.7411 8.45218 66.4927 8.78445 66.9938 9.42823C67.4948 10.0512 67.7454 10.965 67.7454 12.1902V19.9986H71.8164V12.0241C71.8164 9.55283 71.2528 7.78763 70.1254 6.72852Z" fill="black" fill-opacity="0.9"/>
<path d="M73.3818 5.29551H77.4529V19.9778H73.3818V5.29551Z" fill="black" fill-opacity="0.9"/>
<path d="M76.848 0.581477C76.4722 0.20767 75.992 0 75.4075 0C74.8438 0 74.3427 0.20767 73.9461 0.581477C73.5703 0.955283 73.3615 1.41216 73.3615 1.97287C73.3615 2.53358 73.5703 3.01122 73.9461 3.38502C74.3427 3.75883 74.8438 3.9665 75.4075 3.9665C75.9712 3.9665 76.4722 3.7796 76.848 3.38502C77.2238 2.99045 77.4326 2.53358 77.4326 1.97287C77.4326 1.41216 77.2238 0.934516 76.848 0.581477Z" fill="black" fill-opacity="0.9"/>
</svg>
